<?xml version="1.0" encoding="UTF-8"?>
<svg width="800px" height="800px" viewBox="0 0 800 800" version="1.1" xmlns="http://www.w3.org/2000/svg">
    <g stroke="none" stroke-width="1" fill="none" fill-rule="evenodd" opacity="0.1">
        <g transform="translate(0.000000, -100.000000)" fill="#1890FF">
            <path d="M350,100 C379.823276,100 409.646552,106.918994 435.761098,120.756982 C461.875644,134.59497 483.702998,155.291299 499.240865,180.887427 L800,700 L500,700 C470.176724,700 440.353448,693.081006 414.238902,679.243018 C388.124356,665.40503 366.297002,644.708701 350.759135,619.112573 L50,100 L350,100 Z" opacity="0.05"></path>
            <path d="M450,100 C479.823276,100 509.646552,106.918994 535.761098,120.756982 C561.875644,134.59497 583.702998,155.291299 599.240865,180.887427 L900,700 L600,700 C570.176724,700 540.353448,693.081006 514.238902,679.243018 C488.124356,665.40503 466.297002,644.708701 450.759135,619.112573 L150,100 L450,100 Z" opacity="0.1"></path>
            <path d="M550,100 C579.823276,100 609.646552,106.918994 635.761098,120.756982 C661.875644,134.59497 683.702998,155.291299 699.240865,180.887427 L1000,700 L700,700 C670.176724,700 640.353448,693.081006 614.238902,679.243018 C588.124356,665.40503 566.297002,644.708701 550.759135,619.112573 L250,100 L550,100 Z" opacity="0.15"></path>
        </g>
    </g>
</svg>
